<?xml version="1.0" encoding="UTF-8" standalone="no"?>
<!DOCTYPE svg PUBLIC "-//W3C//DTD SVG 1.1//EN" "http://www.w3.org/Graphics/SVG/1.1/DTD/svg11.dtd">
<svg width="144.00" height="89.28" viewBox="0.00 0.00 700.00 434.00" xmlns="http://www.w3.org/2000/svg" xmlns:xlink="http://www.w3.org/1999/xlink">
<g stroke-linecap="round" transform="translate(0.00, -101.00)" id="Capa_3">
<path d="M305.63,301.62 C305.95,301.62 306.26,301.62 306.57,301.62 C306.57,301.62 307.26,301.62 307.26,301.62 C307.26,301.62 308.10,301.62 308.10,301.62" fill="none" stroke="rgb(0, 0, 0)" stroke-width="5.00" stroke-opacity="1.00" stroke-linejoin="round"/>
<path d="M308.10,301.62 C308.10,301.62 442.52,309.02 442.52,309.02" fill="none" stroke="rgb(0, 0, 0)" stroke-width="5.00" stroke-opacity="1.00" stroke-linejoin="round"/>
<path d="M442.52,309.02 C442.52,309.02 442.56,309.26 442.56,309.26 C442.56,309.26 442.59,309.48 442.59,309.48 C442.59,309.48 442.62,309.27 442.62,309.27" fill="none" stroke="rgb(0, 0, 0)" stroke-width="5.00" stroke-opacity="1.00" stroke-linejoin="round"/>
<path d="M304.09,302.58 C304.09,302.58 304.52,302.86 304.52,302.86 C304.91,303.87 303.59,308.91 303.42,311.63 C303.24,315.09 304.83,321.69 306.75,324.63 C308.52,327.25 313.09,331.30 315.47,332.54 C317.81,333.73 323.40,335.14 326.78,335.14 C330.66,335.09 334.58,334.27 338.61,332.81 C351.40,328.05 360.85,323.68 365.11,319.36 C365.58,318.91 370.71,318.17 374.77,319.06 C376.36,319.42 382.41,321.66 382.41,321.66 C382.41,321.66 382.62,321.78 382.62,321.78 C382.62,321.78 382.67,321.79 382.67,321.79" fill="none" stroke="rgb(0, 0, 0)" stroke-width="5.00" stroke-opacity="1.00" stroke-linejoin="round"/>
<path d="M382.25,320.64 C382.25,320.64 382.60,320.65 382.60,320.65 C382.70,323.70 382.96,325.38 383.66,326.69 C384.85,328.87 388.00,332.40 389.88,333.83 C392.44,335.74 398.21,337.59 400.67,337.83 C402.88,338.03 409.91,337.41 413.18,336.74 C416.61,336.01 423.21,333.44 426.03,331.54 C428.79,329.65 433.89,325.13 435.61,322.62 C437.27,320.15 439.14,316.36 439.90,312.97 C440.28,311.19 440.55,309.52 440.59,308.85 C440.59,308.85 440.56,308.65 440.56,308.65" fill="none" stroke="rgb(0, 0, 0)" stroke-width="5.00" stroke-opacity="1.00" stroke-linejoin="round"/>
<path d="M441.22,308.09 C441.22,308.09 441.22,308.10 441.22,308.10 C441.22,308.10 441.22,308.18 441.22,308.18 C441.62,308.27 461.82,311.68 462.56,311.89 C464.32,312.43 466.94,314.65 468.20,316.44 C469.24,318.03 469.68,322.87 468.91,325.22 C468.70,325.80 467.31,328.36 466.72,328.65 C465.19,329.31 462.06,328.41 461.27,326.93 C460.90,326.23 460.85,321.94 460.65,321.34 C460.07,319.61 448.56,317.46 440.82,316.49 C440.20,316.42 439.53,316.34 439.53,316.34" fill="none" stroke="rgb(0, 0, 0)" stroke-width="5.00" stroke-opacity="1.00" stroke-linejoin="round"/>
<path d="M453.41,320.27 C453.41,320.27 453.40,320.63 453.40,320.63 C453.15,322.67 451.01,327.60 448.07,333.00 C444.99,338.45 442.14,343.19 440.22,345.27 C435.62,350.15 425.12,357.21 419.25,359.93 C412.46,363.06 401.97,366.63 391.26,369.55 C383.74,371.46 367.07,375.23 362.23,375.67 C360.67,375.80 357.98,375.82 357.19,375.75 C357.19,375.75 356.72,375.64 356.72,375.64" fill="none" stroke="rgb(0, 0, 0)" stroke-width="5.00" stroke-opacity="1.00" stroke-linejoin="round"/>
<path d="M303.42,322.50 C303.42,322.50 303.60,322.63 303.60,322.63 C304.00,323.09 304.23,323.74 304.23,323.74 C304.24,324.14 300.49,332.71 300.21,334.71 C300.03,336.04 300.37,340.36 300.67,341.68 C301.26,343.97 303.80,346.59 308.24,350.38 C316.92,357.67 326.70,364.22 336.48,369.07 C341.72,371.72 348.80,375.51 349.86,375.91 C351.70,376.60 355.06,376.89 355.54,376.91 C355.54,376.91 355.63,376.85 355.63,376.85" fill="none" stroke="rgb(0, 0, 0)" stroke-width="5.00" stroke-opacity="1.00" stroke-linejoin="round"/>
<path d="M336.21,347.52 C336.21,347.52 336.49,347.52 336.49,347.52 C337.60,349.00 338.90,350.11 340.77,350.89 C344.23,352.31 350.22,352.81 352.36,352.48 C354.12,352.19 358.29,351.08 359.57,350.46 C360.38,350.06 361.48,349.43 362.87,348.55 C362.87,348.55 362.98,348.42 362.98,348.42" fill="none" stroke="rgb(0, 0, 0)" stroke-width="5.00" stroke-opacity="1.00" stroke-linejoin="round"/>
<path d="M310.29,268.01 C310.29,268.01 309.85,267.90 309.85,267.90 C309.52,266.30 309.87,260.48 310.63,258.32 C311.39,256.22 314.78,250.29 317.00,247.70 C320.81,243.30 331.18,236.21 337.42,233.16 C343.17,230.36 354.60,226.06 360.24,224.70 C365.60,223.42 376.24,222.28 382.40,222.29 C385.52,222.31 393.77,223.31 396.19,223.94 C401.28,225.31 414.64,232.74 417.64,235.74 C419.24,237.36 425.25,245.52 426.20,246.91 C428.79,250.77 431.50,254.05 433.73,255.36 C436.20,256.78 441.77,257.28 445.69,256.97 C447.01,256.88 450.82,256.66 451.82,256.79 C453.60,257.04 456.66,258.44 458.46,259.75 C462.41,262.73 466.29,267.54 468.22,271.80 C469.84,275.48 470.91,279.40 470.57,282.58 C470.18,285.77 467.43,291.72 465.81,294.12 C464.41,296.16 460.68,300.47 458.29,302.73 C456.77,304.16 455.18,305.98 453.80,307.83 C453.54,308.18 453.66,308.19 453.66,308.19" fill="none" stroke="rgb(0, 0, 0)" stroke-width="5.00" stroke-opacity="1.00" stroke-linejoin="round"/>
<path d="M396.24,291.98 C396.24,291.98 397.01,292.38 397.01,292.38 C404.17,293.37 418.11,295.40 424.90,296.44 C432.84,297.77 448.07,302.10 452.83,304.32 C453.62,304.70 454.65,305.24 455.92,305.94 C456.22,306.11 456.33,306.22 456.33,306.22" fill="none" stroke="rgb(0, 0, 0)" stroke-width="5.00" stroke-opacity="1.00" stroke-linejoin="round"/>
<path d="M317.45,297.20 C317.45,297.20 317.93,297.20 317.93,297.20 C310.76,297.07 290.40,296.63 287.69,296.50 C282.78,296.26 278.46,295.55 276.55,294.20 C276.64,292.89 279.03,289.58 281.97,287.92 C284.91,286.29 292.49,283.39 294.76,283.00 C297.20,282.61 303.34,283.16 305.60,283.68 C308.60,284.40 330.56,293.25 330.56,293.25 C332.83,294.16 338.67,294.73 342.61,294.76 C349.48,294.75 365.20,290.30 369.82,290.09 C372.44,290.01 388.93,295.27 393.87,295.57 C395.85,295.67 402.49,295.42 402.49,295.42 C402.49,295.42 403.21,295.18 403.83,294.89" fill="none" stroke="rgb(0, 0, 0)" stroke-width="5.00" stroke-opacity="1.00" stroke-linejoin="round"/>
<path d="M295.74,281.83 C296.69,281.82 297.35,281.79 297.73,281.75 C298.19,281.71 324.17,277.31 326.93,276.94 C327.58,276.86 328.23,276.81 328.87,276.70 C328.87,276.70 329.56,276.56 330.20,276.40" fill="none" stroke="rgb(0, 0, 0)" stroke-width="5.00" stroke-opacity="1.00" stroke-linejoin="round"/>
<path d="M310.62,268.57 C310.62,268.57 310.92,268.57 310.92,268.57 C310.92,268.57 310.81,269.00 310.67,269.29 C309.37,272.02 309.09,272.80 308.79,274.91 C308.50,277.01 308.87,279.04 309.73,280.66 C309.73,280.66 310.07,280.91 310.07,280.91" fill="none" stroke="rgb(0, 0, 0)" stroke-width="5.00" stroke-opacity="1.00" stroke-linejoin="round"/>
<path d="M425.12,249.61 C425.12,249.61 424.92,250.09 424.92,250.09 C424.92,250.09 424.63,250.37 424.63,250.37 C425.61,248.73 426.42,247.83 427.62,247.25 C429.87,246.17 434.12,245.70 436.48,246.49 C439.06,247.41 443.04,251.88 443.53,254.15 C443.66,254.81 443.70,255.43 443.65,256.01 C443.65,256.01 443.49,257.11 443.24,258.70 C443.24,258.70 443.17,259.19 443.17,259.19" fill="none" stroke="rgb(0, 0, 0)" stroke-width="5.00" stroke-opacity="1.00" stroke-linejoin="round"/>
<path d="M426.96,253.90 C426.96,253.90 426.95,253.85 426.95,253.85 C425.09,252.42 420.56,250.21 417.11,249.35 C409.97,247.61 395.55,246.50 390.15,246.75 C385.63,246.99 381.29,248.21 377.94,250.02 C374.70,251.82 370.93,255.03 369.02,257.87 C366.98,260.99 365.30,266.62 365.68,268.64 C365.89,269.65 366.20,270.63 366.61,271.59 C366.75,271.90 367.16,272.33 367.16,272.33" fill="none" stroke="rgb(0, 0, 0)" stroke-width="5.00" stroke-opacity="1.00" stroke-linejoin="round"/>
<path d="M434.79,257.53 C436.82,256.80 438.75,256.94 440.85,258.16 C442.87,259.34 445.97,262.72 447.58,265.59 C449.06,268.27 451.14,273.26 452.05,276.32 C453.00,279.60 452.99,283.50 452.01,286.09 C451.26,287.97 448.03,293.49 447.87,293.80 C447.87,293.80 447.62,294.33 447.44,294.78" fill="none" stroke="rgb(0, 0, 0)" stroke-width="5.00" stroke-opacity="1.00" stroke-linejoin="round"/>
<path d="M375.54,365.59 C375.90,365.76 376.38,366.08 376.38,366.08 C379.51,368.37 381.44,369.29 385.72,370.65 C397.05,373.95 439.83,387.61 439.83,387.61 C438.06,391.04 437.23,405.81 437.81,408.71 C437.88,409.03 438.06,409.63 438.36,410.52" fill="none" stroke="rgb(0, 0, 0)" stroke-width="5.00" stroke-opacity="1.00" stroke-linejoin="round"/>
<path d="M377.27,365.55 C376.98,372.47 377.89,381.65 380.43,389.83 C381.26,392.50 383.86,399.60 384.82,401.94 C385.22,402.89 385.55,403.59 385.75,403.97" fill="none" stroke="rgb(0, 0, 0)" stroke-width="5.00" stroke-opacity="1.00" stroke-linejoin="round"/>
<path d="M326.97,368.22 C326.97,368.22 326.91,368.39 326.91,368.39 C320.35,367.51 283.75,357.42 280.73,356.32 C280.07,361.97 279.63,367.23 279.87,371.15 C280.35,378.14 284.15,390.90 286.18,393.86 C286.18,393.86 286.65,394.49 287.10,395.04" fill="none" stroke="rgb(0, 0, 0)" stroke-width="5.00" stroke-opacity="1.00" stroke-linejoin="round"/>
<path d="M311.68,390.72 C311.68,390.72 311.90,390.69 311.90,390.69 C309.70,390.17 303.61,391.21 300.00,391.81 C294.65,392.82 288.44,394.43 286.52,395.90 C284.24,397.72 282.00,401.49 281.16,404.23 C280.57,406.38 279.31,410.76 278.44,412.26 C278.02,412.99 276.69,414.85 276.17,415.57 C276.17,415.57 275.85,416.09 275.85,416.09" fill="none" stroke="rgb(0, 0, 0)" stroke-width="5.00" stroke-opacity="1.00" stroke-linejoin="round"/>
<path d="M433.98,410.29 C433.98,410.29 434.24,410.73 434.24,410.73 C434.24,410.73 457.49,418.01 459.19,418.41 C461.08,418.87 462.37,419.52 463.09,420.44 C464.24,422.00 470.84,441.06 471.53,444.38 C471.96,446.54 472.57,455.19 472.25,458.79 C471.90,462.48 470.28,469.51 469.84,471.04 C468.46,475.73 459.95,490.16 455.59,496.53 C452.04,501.95 448.53,510.47 447.94,512.12 C447.80,512.50 447.67,512.92 447.54,513.38" fill="none" stroke="rgb(0, 0, 0)" stroke-width="5.00" stroke-opacity="1.00" stroke-linejoin="round"/>
<path d="M276.53,442.59 C276.53,442.59 276.92,442.99 276.92,442.99 C278.37,443.31 285.95,441.44 290.13,440.74 C293.76,440.14 403.87,425.89 405.48,425.76 C406.38,425.69 408.23,425.57 408.23,425.57" fill="none" stroke="rgb(0, 0, 0)" stroke-width="5.00" stroke-opacity="1.00" stroke-linejoin="round"/>
<path d="M199.26,423.86 C199.26,423.86 199.49,424.19 199.85,424.20 C201.21,424.25 214.86,422.87 226.91,422.22 C245.91,421.26 293.47,418.87 293.87,418.87 C295.98,418.82 297.83,418.95 297.83,418.95 C297.83,418.95 297.85,419.06 297.85,419.06" fill="none" stroke="rgb(0, 0, 0)" stroke-width="5.00" stroke-opacity="1.00" stroke-linejoin="round"/>
<path d="M200.44,427.62 C200.44,427.62 199.83,427.92 199.83,427.92 C197.47,429.33 180.78,436.18 173.02,439.37 C168.71,441.18 166.20,442.95 162.20,446.89 C158.50,450.62 156.03,453.82 155.63,455.60 C155.17,457.87 155.20,460.83 155.84,462.09 C156.46,463.20 158.61,464.22 159.86,463.98 C162.37,463.39 165.68,459.35 168.20,455.33 C169.75,452.78 172.09,447.57 172.03,446.97 C170.77,449.26 169.13,455.05 168.92,458.53 C168.83,460.53 169.47,463.42 170.26,464.58 C170.98,465.54 172.92,466.52 173.95,466.47 C175.77,466.29 179.87,462.17 182.13,459.00 C185.84,453.65 186.50,452.52 187.15,451.17 C186.01,453.39 184.03,460.65 184.29,462.43 C184.47,463.48 185.74,465.41 186.56,466.02 C187.47,466.64 189.00,466.61 189.83,466.00 C191.33,464.80 196.99,450.55 196.99,450.55 C198.16,448.75 206.26,445.49 206.61,445.32 C206.61,445.32 207.20,445.01 207.67,444.72" fill="none" stroke="rgb(0, 0, 0)" stroke-width="5.00" stroke-opacity="1.00" stroke-linejoin="round"/>
<path d="M199.43,425.13 C199.43,425.13 199.98,425.80 199.98,425.80 C197.71,425.43 195.41,425.84 194.00,427.04 C192.80,428.10 193.49,431.58 193.99,432.07 C194.38,432.44 195.57,432.87 195.57,432.87" fill="none" stroke="rgb(0, 0, 0)" stroke-width="5.00" stroke-opacity="1.00" stroke-linejoin="round"/>
<path d="M202.28,427.95 C202.28,427.95 202.49,428.09 202.78,428.19 C205.36,429.09 206.31,429.58 207.36,430.71 C209.24,432.79 211.55,438.02 212.61,441.94 C213.67,445.96 214.43,453.60 213.95,457.28 C213.67,459.29 213.00,461.67 212.21,463.55 C211.54,465.03 209.30,467.49 207.84,468.19 C206.36,468.85 203.55,467.88 201.84,466.55 C200.79,465.64 198.12,451.57 197.61,450.38 C197.61,450.38 197.17,449.79 197.17,449.79" fill="none" stroke="rgb(0, 0, 0)" stroke-width="5.00" stroke-opacity="1.00" stroke-linejoin="round"/>
<path d="M284.64,451.08 C284.64,451.08 284.64,451.08 284.64,451.08 C275.91,446.37 266.84,442.24 262.68,441.35 C259.98,440.81 253.20,441.43 250.30,442.47 C247.24,443.60 241.02,447.85 238.10,450.97 C234.82,454.52 231.41,459.36 230.48,461.93 C230.11,463.06 229.29,465.69 229.32,466.32 C229.49,468.21 231.25,470.10 233.09,470.01 C236.04,469.81 240.33,467.17 242.63,465.12 C246.59,461.52 247.68,460.40 249.42,458.48 C246.69,462.30 244.77,465.50 244.39,467.17 C244.00,469.21 244.28,471.27 245.26,472.34 C246.08,473.18 248.71,474.39 249.89,474.36 C252.79,474.23 257.03,471.96 259.43,469.86 C263.44,466.24 264.40,465.14 265.83,463.23 C264.73,465.77 264.34,466.85 263.96,468.72 C263.67,470.28 264.93,472.56 266.59,473.43 C267.33,473.78 270.30,472.68 270.99,472.17 C271.85,471.49 273.72,469.03 274.30,467.95 C275.59,465.56 276.36,464.96 277.80,465.32 C277.80,465.32 281.00,466.30 282.08,466.51 C282.58,466.60 283.72,466.78 285.49,467.03" fill="none" stroke="rgb(0, 0, 0)" stroke-width="5.00" stroke-opacity="1.00" stroke-linejoin="round"/>
<path d="M278.80,443.77 C278.80,443.77 278.82,443.92 278.82,443.92 C281.18,444.68 286.59,447.75 289.02,449.82 C291.63,452.07 295.35,457.68 296.10,459.73 C297.69,464.25 298.16,476.55 298.64,477.56 C298.64,477.56 299.14,478.01 299.14,478.01" fill="none" stroke="rgb(0, 0, 0)" stroke-width="5.00" stroke-opacity="1.00" stroke-linejoin="round"/>
<path d="M433.69,453.95 C433.69,453.95 433.78,454.17 433.62,454.45 C432.23,456.81 427.36,462.69 424.81,464.82 C418.27,470.23 410.25,474.71 400.45,478.72 C392.01,482.07 386.12,483.87 385.21,484.15 C385.21,484.15 380.70,486.97 380.70,486.97" fill="none" stroke="rgb(0, 0, 0)" stroke-width="5.00" stroke-opacity="1.00" stroke-linejoin="round"/>
<path d="M346.49,376.06 C346.49,376.06 346.66,376.65 346.66,376.65 C346.47,379.43 341.38,389.42 339.77,391.98 C339.22,392.83 338.62,393.76 338.62,393.76" fill="none" stroke="rgb(0, 0, 0)" stroke-width="5.00" stroke-opacity="1.00" stroke-linejoin="round"/>
<path d="M-16.35,530.54 C-15.83,530.31 -15.28,530.07 -15.28,530.07 C-13.63,529.43 73.75,523.54 103.01,521.59 C133.32,520.11 198.36,517.09 233.09,515.54 C263.86,514.08 324.19,511.61 353.74,510.60 C368.92,510.22 396.05,509.63 408.01,509.42 C442.42,509.34 505.46,509.52 534.08,509.76 C569.59,510.16 636.87,511.02 668.63,511.47 C705.99,512.24 769.05,513.77 794.74,514.53 C808.94,515.11 838.27,516.11 854.51,516.30 C855.83,516.31 859.45,516.31 860.61,516.33 C861.34,516.34 862.03,516.44 862.03,516.44" fill="none" stroke="rgb(0, 0, 0)" stroke-width="5.00" stroke-opacity="1.00" stroke-linejoin="round"/>
<path d="M140.52,140.96 C139.79,140.42 139.29,140.07 139.03,139.92 C137.92,139.30 132.92,138.03 130.42,137.86 C127.25,137.68 121.56,138.83 117.87,140.62 C115.93,141.58 111.06,145.14 108.97,147.29 C106.71,149.64 103.48,154.03 102.04,156.71 C100.83,159.01 98.79,167.28 99.34,170.46 C99.67,172.10 101.82,175.73 103.75,177.49 C105.58,179.12 109.98,181.63 112.89,182.76 C115.47,183.74 121.64,185.05 124.74,185.25 C127.52,185.41 134.46,184.82 137.23,184.26 C140.54,183.56 146.08,181.42 148.49,179.77 C151.30,177.77 154.96,172.81 156.26,169.22 C157.30,166.26 158.08,159.06 157.84,155.52 C157.55,151.74 155.56,145.57 153.81,143.22 C152.20,141.12 147.63,138.05 145.21,137.24 C143.26,136.61 137.87,135.95 135.23,136.18 C129.68,136.73 126.47,137.75 123.99,138.90" fill="none" stroke="rgb(0, 0, 0)" stroke-width="5.00" stroke-opacity="1.00" stroke-linejoin="round"/>
<path d="M117.48,182.65 C117.48,182.65 116.93,183.13 116.93,183.13 C112.22,188.14 104.79,198.87 98.58,208.97 C90.93,221.32 80.74,235.30 78.39,238.62 C76.68,241.07 76.11,242.06 76.11,242.06" fill="none" stroke="rgb(0, 0, 0)" stroke-width="5.00" stroke-opacity="1.00" stroke-linejoin="round"/>
<path d="M136.59,183.08 C136.59,183.08 136.59,183.46 136.59,183.46 C136.63,184.54 136.88,186.14 137.33,187.73 C138.35,191.30 141.58,198.37 143.02,201.16 C144.95,204.86 165.04,231.96 166.69,233.26 C167.24,233.69 167.92,233.45 167.92,233.45" fill="none" stroke="rgb(0, 0, 0)" stroke-width="5.00" stroke-opacity="1.00" stroke-linejoin="round"/>
<path d="M81.68,242.04 C81.68,242.04 81.48,242.14 81.48,242.14 C80.77,242.59 80.09,242.63 77.04,242.42 C76.31,242.37 68.33,242.37 65.84,242.82 C63.82,243.21 57.61,245.48 55.66,246.84 C53.63,248.31 50.92,252.39 50.05,255.22 C49.23,257.98 48.45,264.65 48.74,267.62 C48.95,269.50 49.74,272.12 50.57,273.55 C51.46,275.00 53.66,277.14 55.25,278.05 C58.20,279.68 64.51,280.68 67.04,280.69 C69.22,280.68 76.00,279.80 79.33,278.81 C83.02,277.69 88.34,273.90 90.23,270.97 C91.28,269.27 92.44,266.29 92.82,264.30 C93.16,262.28 93.06,259.08 92.58,257.24 C92.04,255.37 90.51,252.73 89.08,251.19 C86.43,248.42 80.61,245.10 76.79,243.91 C75.04,243.39 71.22,242.27 70.83,242.20 C70.83,242.20 70.13,242.13 69.60,242.15" fill="none" stroke="rgb(0, 0, 0)" stroke-width="5.00" stroke-opacity="1.00" stroke-linejoin="round"/>
<path d="M177.82,235.94 C177.34,235.95 176.70,235.94 176.70,235.94 C173.74,235.89 169.50,236.45 164.88,237.58 C161.34,238.47 157.43,240.41 155.03,242.47 C152.84,244.40 150.01,248.94 149.61,251.61 C149.40,253.16 149.61,255.66 150.08,257.14 C151.02,259.89 155.68,264.77 159.11,266.54 C162.27,268.14 168.63,269.89 170.56,270.16 C174.97,270.74 182.57,270.18 186.20,269.00 C189.92,267.73 195.53,263.43 197.27,260.44 C198.02,259.08 199.06,255.52 199.13,253.99 C199.17,252.46 198.43,248.36 197.83,246.75 C196.50,243.31 192.22,238.67 189.34,236.91 C186.84,235.45 180.59,233.54 177.91,233.10 C174.02,232.48 170.92,232.47 169.33,232.56" fill="none" stroke="rgb(0, 0, 0)" stroke-width="5.00" stroke-opacity="1.00" stroke-linejoin="round"/>
<path d="M176.44,272.90 C176.44,272.90 176.43,272.90 176.43,272.90 C176.43,272.90 176.09,272.95 176.09,272.95 C176.09,272.95 169.78,281.46 167.53,284.52 C164.62,288.46 151.94,300.91 146.40,306.37 C145.08,307.71 144.09,308.79 143.64,309.36 C143.64,309.36 143.52,309.60 143.52,309.60" fill="none" stroke="rgb(0, 0, 0)" stroke-width="5.00" stroke-opacity="1.00" stroke-linejoin="round"/>
<path d="M194.86,264.78 C194.86,264.78 194.79,264.07 194.79,264.07 C198.26,266.07 207.67,274.62 214.05,282.43 C215.01,283.61 225.30,296.79 225.59,297.08 C225.91,297.40 226.50,297.87 227.34,298.51 C227.34,298.51 227.37,298.51 227.37,298.51" fill="none" stroke="rgb(0, 0, 0)" stroke-width="5.00" stroke-opacity="1.00" stroke-linejoin="round"/>
<path d="M235.68,300.22 C235.03,299.71 234.54,299.39 234.20,299.24 C232.69,298.59 224.07,297.37 221.02,297.70 C217.37,298.15 210.66,301.35 208.26,303.86 C207.46,304.74 204.63,308.70 204.21,309.67 C203.55,311.27 203.06,315.14 203.36,316.80 C203.94,319.77 206.78,324.10 208.07,325.41 C209.66,327.00 213.66,329.75 216.03,330.81 C218.44,331.87 223.66,333.24 226.31,333.49 C229.01,333.72 234.08,333.24 236.23,332.51 C238.09,331.84 242.41,328.95 244.55,325.98 C245.60,324.48 247.72,318.30 247.16,314.59 C246.82,312.57 244.07,307.53 242.08,305.68 C239.60,303.41 237.14,301.83 233.71,300.39 C231.77,299.60 228.43,298.30 227.45,298.01 C225.96,297.59 224.07,297.28 223.17,297.24" fill="none" stroke="rgb(0, 0, 0)" stroke-width="5.00" stroke-opacity="1.00" stroke-linejoin="round"/>
<path d="M148.30,308.84 C147.89,309.33 140.85,309.55 139.73,309.81 C138.35,310.15 136.34,310.96 135.38,311.61 C134.24,312.43 132.93,314.10 131.90,315.99 C131.05,317.66 130.43,319.98 130.52,321.60 C130.76,325.00 133.88,330.17 135.58,331.73 C137.39,333.31 141.54,335.28 144.02,335.57 C146.84,335.85 152.67,334.99 155.37,333.80 C158.09,332.56 163.13,328.52 164.98,326.19 C166.58,324.11 167.98,319.33 167.52,317.42 C167.28,316.55 165.95,314.53 165.15,313.72 C163.66,312.31 158.39,310.56 153.75,309.60 C150.07,308.86 144.40,308.41 142.20,308.41 C141.70,308.41 140.45,308.43 138.47,308.47" fill="none" stroke="rgb(0, 0, 0)" stroke-width="5.00" stroke-opacity="1.00" stroke-linejoin="round"/>
<path d="M66.87,280.36 C66.87,280.92 67.06,281.72 67.56,282.76 C68.59,284.93 78.12,299.46 82.37,305.63 C83.50,307.21 88.46,313.84 88.46,313.84 C88.46,313.84 88.86,314.30 88.86,314.30" fill="none" stroke="rgb(0, 0, 0)" stroke-width="5.00" stroke-opacity="1.00" stroke-linejoin="round"/>
<path d="M96.97,315.42 C96.97,315.42 96.78,315.25 96.78,315.25 C94.35,314.33 92.18,313.74 90.84,313.74 C87.83,313.78 82.61,314.83 79.18,316.94 C77.34,318.13 75.10,320.34 74.13,322.03 C72.63,324.77 72.53,330.42 72.90,332.03 C73.39,334.03 75.88,338.30 77.45,339.75 C79.05,341.18 83.89,343.65 86.10,344.14 C88.16,344.56 93.48,344.66 95.80,344.32 C98.07,343.98 102.21,342.56 103.94,341.53 C105.70,340.45 108.46,337.54 109.49,335.67 C110.34,334.09 111.67,328.80 110.95,325.80 C110.47,323.90 108.43,321.16 106.61,319.58 C105.21,318.43 98.86,315.87 96.50,315.43 C95.98,315.34 95.00,315.24 93.58,315.14" fill="none" stroke="rgb(0, 0, 0)" stroke-width="5.00" stroke-opacity="1.00" stroke-linejoin="round"/>
<path d="M56.98,278.90 C56.98,278.90 56.86,278.80 56.86,278.80 C56.37,279.08 45.42,287.74 36.50,294.42 C32.59,297.42 27.27,301.73 25.93,302.94 C25.51,303.32 25.10,303.73 24.70,304.15 C24.70,304.15 24.41,304.51 24.41,304.51" fill="none" stroke="rgb(0, 0, 0)" stroke-width="5.00" stroke-opacity="1.00" stroke-linejoin="round"/>
<path d="M36.81,321.29 C36.81,321.29 36.77,321.16 36.77,321.16 C35.82,319.25 30.58,312.73 29.02,311.47 C27.73,310.46 22.65,307.65 20.34,306.96 C17.79,306.23 13.00,306.33 10.88,307.34 C8.69,308.42 4.62,312.63 3.54,315.38 C2.92,317.06 2.56,320.07 2.82,321.83 C3.37,325.06 6.77,330.30 8.48,331.94 C10.30,333.66 15.37,336.58 18.01,337.41 C21.29,338.37 27.78,338.29 30.78,337.30 C32.41,336.72 35.30,334.51 36.27,333.04 C37.25,331.50 37.91,328.08 37.87,325.81 C37.78,324.08 34.18,318.27 31.94,316.63 C31.00,315.96 29.12,315.44 27.94,315.28" fill="none" stroke="rgb(0, 0, 0)" stroke-width="5.00" stroke-opacity="1.00" stroke-linejoin="round"/>
<path d="M25.06,147.02 C25.86,147.00 26.67,146.97 27.48,146.95 C30.59,146.80 38.00,146.45 42.31,146.23 C51.20,145.63 60.62,144.80 61.83,144.69" fill="none" stroke="rgb(0, 0, 0)" stroke-width="5.00" stroke-opacity="1.00" stroke-linejoin="round"/>
<path d="M191.85,156.38 C191.85,156.38 191.60,156.38 191.60,156.38 C197.31,156.08 211.79,155.30 220.56,154.82 C235.48,154.10 254.02,153.20 257.63,153.03 C259.17,152.95 261.65,152.82 262.58,152.77" fill="none" stroke="rgb(0, 0, 0)" stroke-width="5.00" stroke-opacity="1.00" stroke-linejoin="round"/>
<path d="M18.97,197.21 C18.97,197.21 19.33,198.53 19.33,198.53 C22.46,197.86 29.06,196.12 32.92,195.10 C36.24,194.25 40.55,193.90 41.51,194.85 C42.20,195.54 43.91,197.66 45.60,198.10 C49.31,199.06 62.25,201.17 62.25,201.17 C62.55,201.21 63.00,201.26 63.60,201.31" fill="none" stroke="rgb(0, 0, 0)" stroke-width="5.00" stroke-opacity="1.00" stroke-linejoin="round"/>
<path d="M192.92,204.06 C192.92,204.06 192.04,205.37 192.04,205.37 C198.82,205.32 214.39,205.29 223.17,205.32 C238.64,205.74 256.34,206.21 258.56,206.28" fill="none" stroke="rgb(0, 0, 0)" stroke-width="5.00" stroke-opacity="1.00" stroke-linejoin="round"/>
<path d="M2.95,376.85 C2.95,376.85 2.64,376.81 2.64,376.81 C1.88,376.80 1.11,376.78 0.35,376.77 C7.86,376.72 27.92,376.70 32.32,376.90 C36.54,377.12 41.46,378.02 44.96,379.37 C47.56,380.38 62.79,381.12 70.69,381.43 C101.10,381.69 156.52,382.49 160.16,382.36 C165.61,382.16 181.79,380.34 189.03,379.34 C203.58,377.09 218.88,373.57 219.94,373.33 C219.94,373.33 220.56,373.19 221.03,373.10" fill="none" stroke="rgb(0, 0, 0)" stroke-width="5.00" stroke-opacity="1.00" stroke-linejoin="round"/>
<path d="M10.68,409.98 C8.68,409.79 7.43,409.64 6.93,409.54 C6.43,409.44 5.97,409.25 5.55,408.96 C20.10,408.04 48.78,406.36 62.92,405.61 C79.05,404.97 111.13,403.79 127.08,403.25 C152.93,401.99 157.13,401.52 158.15,401.34" fill="none" stroke="rgb(0, 0, 0)" stroke-width="5.00" stroke-opacity="1.00" stroke-linejoin="round"/>
<path d="M10.11,437.18 C10.11,437.18 10.26,437.34 10.26,437.34 C16.76,435.96 30.27,434.80 38.68,434.32 C46.88,434.04 62.44,433.88 70.05,433.84 C87.53,433.47 94.10,432.63 98.14,431.93" fill="none" stroke="rgb(0, 0, 0)" stroke-width="5.00" stroke-opacity="1.00" stroke-linejoin="round"/>
<path d="M396.31,510.05 C396.31,510.05 396.41,510.05 396.41,510.05 C397.12,508.74 398.83,505.22 398.86,504.49 C398.88,503.53 397.75,502.03 396.81,501.60 C394.59,500.70 380.52,498.66 370.22,496.72 C350.45,492.66 334.14,488.44 328.17,487.84 C324.92,487.57 323.94,487.58 323.25,488.17 C321.59,489.69 320.32,491.89 319.93,494.07 C319.86,494.48 319.92,505.02 320.04,505.47 C320.22,506.09 321.17,507.25 321.17,507.25" fill="none" stroke="rgb(0, 0, 0)" stroke-width="5.00" stroke-opacity="1.00" stroke-linejoin="round"/>
<path d="M70.32,519.42 C70.32,519.42 70.22,519.19 70.22,519.19 C70.09,518.85 69.93,518.52 69.75,518.18 C67.54,514.04 65.19,508.36 64.41,504.60 C63.68,501.00 63.15,494.90 63.56,492.81 C64.02,490.65 66.73,487.00 68.50,485.98 C69.49,485.43 71.28,484.88 72.80,484.61 C74.20,484.37 77.59,484.44 78.82,484.35 C79.66,484.29 83.11,483.70 83.11,483.70" fill="none" stroke="rgb(0, 0, 0)" stroke-width="5.00" stroke-opacity="1.00" stroke-linejoin="round"/>
<path d="M72.20,485.62 C72.20,485.62 72.72,485.62 72.72,485.62 C88.36,484.57 172.59,482.17 185.78,482.17 C220.23,482.95 287.67,484.78 320.66,485.83 C325.41,486.00 332.81,486.25 335.46,486.32 C335.46,486.32 336.09,486.36 336.09,486.36" fill="none" stroke="rgb(0, 0, 0)" stroke-width="5.00" stroke-opacity="1.00" stroke-linejoin="round"/>
<path d="M107.59,483.45 C107.59,483.45 108.10,483.45 108.10,483.45 C108.10,483.45 109.82,479.28 109.82,479.28 C110.22,477.93 110.50,477.70 113.09,476.38 C115.81,475.08 130.03,474.80 133.62,474.75 C133.68,476.30 133.87,480.58 134.04,481.23 C134.15,481.65 134.44,482.18 134.92,482.81" fill="none" stroke="rgb(0, 0, 0)" stroke-width="5.00" stroke-opacity="1.00" stroke-linejoin="round"/>
<path d="M148.58,478.94 C148.58,478.94 148.60,477.84 148.69,477.39 C149.03,475.83 150.10,475.02 151.94,475.05 C152.35,475.06 161.62,475.73 164.72,475.96 C164.86,477.59 165.31,479.49 165.81,480.39 C165.81,480.39 166.22,480.70 166.22,480.70" fill="none" stroke="rgb(0, 0, 0)" stroke-width="5.00" stroke-opacity="1.00" stroke-linejoin="round"/>
<path d="M180.44,479.37 C180.44,479.37 181.01,475.32 181.01,475.32 C181.83,475.26 187.24,475.57 192.62,474.88 C194.56,474.62 195.78,474.64 197.58,474.89 C197.93,475.17 197.99,477.53 198.03,478.47 C198.05,478.85 198.11,479.25 198.23,479.68" fill="none" stroke="rgb(0, 0, 0)" stroke-width="5.00" stroke-opacity="1.00" stroke-linejoin="round"/>
<path d="M212.49,479.68 C212.49,479.68 212.25,479.68 212.25,479.68 C212.25,479.68 212.07,479.74 212.07,479.74 C212.07,479.74 213.05,476.59 213.05,476.59 C214.93,476.02 216.47,475.82 219.45,475.86 C222.30,475.92 224.30,476.59 225.31,477.84 C225.31,477.84 225.68,478.49 226.10,479.38 C226.10,479.38 226.30,479.65 226.30,479.65" fill="none" stroke="rgb(0, 0, 0)" stroke-width="5.00" stroke-opacity="1.00" stroke-linejoin="round"/>
<path d="M238.91,481.85 C238.91,481.85 238.77,481.85 238.77,481.85 C238.77,481.85 238.56,481.69 238.56,481.69 C239.09,479.66 239.49,478.43 239.74,478.02 C240.23,477.25 242.89,477.13 245.90,477.15 C247.23,477.18 249.50,477.18 250.53,477.11 C253.70,476.96 255.12,477.35 255.48,478.75 C255.67,479.94 256.11,481.48 256.11,481.48 C256.11,481.48 256.29,481.53 256.29,481.53" fill="none" stroke="rgb(0, 0, 0)" stroke-width="5.00" stroke-opacity="1.00" stroke-linejoin="round"/>
<path d="M268.08,482.71 C268.08,482.71 268.08,482.35 268.08,482.35 C268.22,478.90 269.21,477.09 269.21,477.09 C272.26,477.94 280.01,478.09 280.36,478.57 C280.55,478.83 280.72,479.65 280.90,481.04 C281.05,482.51 281.24,483.36 281.24,483.36" fill="none" stroke="rgb(0, 0, 0)" stroke-width="5.00" stroke-opacity="1.00" stroke-linejoin="round"/>
<path d="M291.51,482.99 C291.51,482.99 291.62,482.70 291.62,482.70 C293.46,480.66 295.24,479.79 297.69,479.87 C298.45,479.89 305.88,479.72 308.71,479.72 C310.05,479.72 310.56,479.91 310.90,480.35 C310.33,481.91 309.96,482.93 309.80,483.41 C309.60,484.01 309.43,484.63 309.28,485.25 C309.28,485.25 309.28,485.34 309.28,485.34" fill="none" stroke="rgb(0, 0, 0)" stroke-width="5.00" stroke-opacity="1.00" stroke-linejoin="round"/>
<path d="M326.78,485.11 C326.52,485.32 326.28,485.49 326.28,485.49 C326.28,485.49 326.04,485.55 326.04,485.55 C326.24,484.39 327.57,481.71 328.77,480.64 C329.73,479.81 331.91,479.65 333.81,479.91 C336.07,480.28 337.70,480.91 338.46,481.07 C338.79,481.14 340.60,481.03 341.69,481.01 C342.35,481.20 342.45,482.04 342.15,485.28 C342.10,485.77 342.08,486.27 342.09,486.78" fill="none" stroke="rgb(0, 0, 0)" stroke-width="5.00" stroke-opacity="1.00" stroke-linejoin="round"/>
<path d="M351.78,490.16 C351.78,490.16 351.93,488.32 352.21,486.90 C352.50,485.65 353.52,485.32 356.25,485.34 C357.65,485.37 362.50,485.42 362.64,485.74 C362.37,487.69 362.25,488.80 362.12,490.79 C362.12,490.79 362.08,491.17 362.08,491.17" fill="none" stroke="rgb(0, 0, 0)" stroke-width="5.00" stroke-opacity="1.00" stroke-linejoin="round"/>
<path d="M371.09,494.52 C371.09,494.52 370.54,494.68 370.54,494.68 C370.54,494.68 370.45,489.03 370.45,489.03 C372.68,489.27 376.20,489.63 376.94,489.61 C379.04,489.57 380.61,490.49 381.82,492.40 C382.17,492.97 382.97,495.53 383.75,496.30 C383.75,496.30 384.18,496.55 384.50,496.50" fill="none" stroke="rgb(0, 0, 0)" stroke-width="5.00" stroke-opacity="1.00" stroke-linejoin="round"/>
<path d="M323.44,292.98 C323.44,292.98 323.11,292.87 323.11,292.87 C322.04,293.14 317.18,297.51 316.89,297.79 C316.89,297.79 316.50,298.21 316.30,298.49 C316.30,298.49 316.24,298.55 316.24,298.55" fill="none" stroke="rgb(0, 0, 0)" stroke-width="5.00" stroke-opacity="1.00" stroke-linejoin="round"/>
<path d="M1039.65,252.69 C1039.80,254.33 1040.18,258.77 1040.25,259.95 C1040.34,261.22 1040.51,264.16 1040.51,264.16 C1040.51,264.16 1040.78,264.59 1041.13,264.93" fill="none" stroke="rgb(0, 0, 0)" stroke-width="5.00" stroke-opacity="1.00" stroke-linejoin="round"/>
<path d="M465.32,506.28 C465.32,506.28 465.21,506.38 465.21,506.38 C465.21,506.38 465.06,506.58 465.06,506.58 C466.72,503.86 471.42,496.36 471.64,495.93 C472.91,493.44 479.28,472.79 479.31,469.46 C479.31,465.73 476.89,447.20 476.93,443.03 C477.04,437.82 480.94,422.53 483.16,414.68 C484.69,409.55 486.78,403.35 488.22,400.49 C489.60,397.78 492.92,392.34 494.03,391.04 C496.64,388.05 502.00,384.41 505.61,382.84 C506.83,382.33 508.97,381.82 509.80,381.89 C511.99,382.15 516.03,385.50 518.33,389.01 C520.26,392.06 526.21,411.53 526.90,414.41 C527.96,418.92 528.59,432.80 528.11,439.87 C527.55,446.17 526.19,457.55 525.44,465.68 C524.66,474.57 523.36,480.65 519.37,492.90 C518.15,496.70 516.57,506.12 515.68,508.42 C515.68,508.42 515.62,508.88 515.62,508.88" fill="none" stroke="rgb(0, 0, 0)" stroke-width="5.00" stroke-opacity="1.00" stroke-linejoin="round"/>
<path d="M411.63,376.07 C411.63,376.07 411.64,376.39 411.64,376.39 C413.22,377.01 430.88,377.04 439.99,377.06 C455.36,377.33 491.26,378.51 505.06,379.71 C508.22,380.00 513.60,380.49 515.02,380.77 C515.02,380.77 515.19,380.79 515.19,380.79" fill="none" stroke="rgb(0, 0, 0)" stroke-width="5.00" stroke-opacity="1.00" stroke-linejoin="round"/>
<path d="M508.11,302.34 C508.11,302.34 507.99,301.89 507.99,301.89 C507.07,301.46 503.18,302.74 500.89,305.10 C497.43,308.75 487.64,326.21 486.56,329.74 C486.09,331.34 485.27,338.15 485.39,341.27 C485.55,344.85 486.49,349.01 487.80,351.71 C489.34,354.81 491.56,358.51 494.78,360.93 C495.59,361.53 507.35,369.66 507.35,369.66 C509.26,371.03 511.45,371.64 513.12,371.20 C513.60,371.05 516.15,368.98 517.18,368.15 C518.59,366.87 521.41,362.29 524.40,356.92 C526.86,352.38 528.93,347.45 529.19,344.95 C529.40,342.63 529.80,334.59 529.63,331.99 C529.43,329.15 527.84,320.81 526.50,317.49 C524.28,312.15 516.88,305.58 512.84,303.04 C510.39,301.52 508.87,300.83 507.49,300.56 C507.49,300.56 506.69,300.42 506.69,300.42" fill="none" stroke="rgb(0, 0, 0)" stroke-width="5.00" stroke-opacity="1.00" stroke-linejoin="round"/>
<path d="M505.47,300.04 C505.47,300.04 505.40,300.51 505.40,300.51 C504.55,301.26 497.59,301.38 493.84,301.46 C479.99,301.15 465.08,300.85 463.89,300.78 C463.89,300.78 463.11,300.70 463.11,300.70" fill="none" stroke="rgb(0, 0, 0)" stroke-width="5.00" stroke-opacity="1.00" stroke-linejoin="round"/>
<path d="M509.52,368.50 C509.52,368.50 508.80,368.75 508.80,368.75 C508.21,368.81 488.37,368.18 481.96,367.78 C475.41,367.46 429.69,368.52 419.53,368.50 C415.47,368.44 412.66,368.25 410.96,367.81 C409.49,367.42 408.13,366.95 408.13,366.95" fill="none" stroke="rgb(0, 0, 0)" stroke-width="5.00" stroke-opacity="1.00" stroke-linejoin="round"/>
<path d="M456.52,369.73 C455.88,369.99 455.30,370.27 455.30,370.27 C454.67,370.69 454.60,371.63 455.02,373.11 C455.53,374.88 456.05,376.24 456.47,377.33 C456.47,377.33 456.43,377.40 456.43,377.40 C456.43,377.40 456.34,377.33 456.34,377.33" fill="none" stroke="rgb(0, 0, 0)" stroke-width="5.00" stroke-opacity="1.00" stroke-linejoin="round"/>
<path d="M469.80,370.01 C469.80,370.01 469.78,370.53 469.78,370.53 C469.44,371.07 468.04,372.98 467.89,374.27 C467.74,375.65 468.20,377.96 468.69,378.89 C468.69,378.89 469.13,379.45 469.13,379.45" fill="none" stroke="rgb(0, 0, 0)" stroke-width="5.00" stroke-opacity="1.00" stroke-linejoin="round"/>
<path d="M-33.90,552.10 C-32.81,551.52 -30.69,549.74 -29.62,548.35 C-29.17,547.76 -28.40,545.68 -28.40,545.68 C-28.40,545.68 -28.38,545.29 -28.38,545.29" fill="none" stroke="rgb(0, 0, 0)" stroke-width="5.00" stroke-opacity="1.00" stroke-linejoin="round"/>
<path d="M335.49,304.22 C332.16,306.64 321.43,315.43 313.60,322.78 C312.10,324.19 310.03,326.07 308.63,327.34 C308.22,327.72 308.22,327.89 308.22,327.89" fill="none" stroke="rgb(0, 0, 0)" stroke-width="5.00" stroke-opacity="1.00" stroke-linejoin="round"/>
<path d="M350.23,305.49 C350.23,305.49 350.51,305.51 350.51,305.51 C350.51,305.51 320.88,333.18 320.88,333.18 C320.88,333.18 321.20,332.50 321.20,332.50" fill="none" stroke="rgb(0, 0, 0)" stroke-width="5.00" stroke-opacity="1.00" stroke-linejoin="round"/>
<path d="M403.39,309.63 C403.39,309.63 403.59,309.76 403.59,309.76 C403.36,310.61 393.25,323.45 389.89,327.72 C389.63,328.05 389.15,328.69 388.45,329.63" fill="none" stroke="rgb(0, 0, 0)" stroke-width="5.00" stroke-opacity="1.00" stroke-linejoin="round"/>
<path d="M424.69,309.11 C424.69,309.11 424.45,309.11 424.45,309.11 C424.45,309.11 424.30,309.11 424.30,309.11 C418.87,315.74 411.36,323.80 404.79,329.90 C402.89,331.67 400.46,333.81 399.55,334.60 C399.24,334.87 398.80,335.29 398.80,335.29" fill="none" stroke="rgb(0, 0, 0)" stroke-width="5.00" stroke-opacity="1.00" stroke-linejoin="round"/>
<path d="M307.65,304.38 C307.65,304.38 307.80,304.46 307.80,304.46 C307.80,304.46 310.33,304.06 310.33,304.06 C310.33,304.06 306.48,308.37 306.48,308.37 C306.48,308.37 314.80,304.73 314.80,304.73 C314.80,304.73 306.53,314.01 306.53,314.01 C307.18,314.06 310.62,312.02 313.90,309.44 C317.60,306.53 321.17,305.27 321.17,305.27 C320.58,306.28 314.93,310.57 313.63,311.74 C310.12,314.94 307.73,317.81 307.79,318.28 C309.23,318.25 310.91,316.79 314.71,313.23 C320.15,308.29 327.09,304.72 327.81,305.03 C328.00,306.09 326.53,307.27 324.15,308.90 C322.31,310.18 312.73,317.25 312.22,317.62 C308.82,320.00 308.68,320.32 308.60,320.82 C309.38,321.41 310.75,321.14 312.70,319.61 C315.24,317.61 323.79,309.71 326.73,307.97 C326.73,307.97 327.18,307.69 327.51,307.48 C327.51,307.48 327.56,307.44 327.56,307.44" fill="none" stroke="rgb(0, 0, 0)" stroke-width="5.00" stroke-opacity="1.00" stroke-linejoin="round"/>
<path d="M352.08,307.24 C352.08,307.24 351.97,307.38 351.97,307.38 C350.69,309.07 335.64,321.89 333.38,324.13 C327.57,330.11 327.36,331.24 327.24,331.59 C327.89,331.91 329.80,330.44 333.38,327.49 C347.19,316.21 356.45,307.06 358.74,306.96 C358.74,307.88 358.40,308.62 357.15,310.10 C353.93,313.91 350.65,317.38 347.94,319.77 C345.90,321.55 333.71,330.72 333.98,331.29 C335.03,331.47 339.87,328.37 342.27,326.83 C346.55,324.01 358.27,313.26 363.26,310.27 C364.71,309.40 366.14,308.89 366.14,308.89 C366.14,308.89 346.79,325.33 346.79,325.33 C347.43,325.84 349.98,324.25 352.95,321.73 C354.89,320.07 365.12,309.71 367.08,308.81 C367.50,308.62 368.33,308.63 368.33,308.63 C368.33,308.63 357.61,320.58 357.61,320.58 C366.11,312.90 372.96,307.34 373.70,308.14 C373.70,308.14 369.20,314.12 369.20,314.12 C369.20,314.12 378.62,309.17 378.62,309.17 C378.62,309.17 374.77,313.59 374.44,314.90 C374.44,314.90 374.47,315.20 374.47,315.20 C374.47,315.20 383.37,309.04 383.37,309.04 C383.48,309.51 379.63,314.16 379.25,314.86 C378.94,315.44 378.96,316.41 378.96,316.41 C379.93,316.60 381.73,315.24 384.83,312.47 C386.51,310.97 387.72,310.46 387.72,310.46 C387.72,310.46 383.27,318.33 383.27,318.33 C383.27,318.33 391.91,310.24 391.91,310.24 C391.91,310.24 385.37,321.03 385.37,321.03 C385.37,321.03 395.02,310.72 397.28,310.22 C397.28,310.22 386.44,323.94 386.44,323.94 C386.98,324.28 397.79,311.50 399.53,310.64 C399.53,310.64 399.85,310.56 399.85,310.56 C400.33,311.30 386.63,325.21 385.81,326.16 C385.55,326.45 385.40,326.59 385.40,326.59" fill="none" stroke="rgb(0, 0, 0)" stroke-width="5.00" stroke-opacity="1.00" stroke-linejoin="round"/>
<path d="M438.62,310.51 C438.62,310.51 438.35,310.35 438.35,310.35 C438.35,310.35 438.25,310.25 438.25,310.25 C438.25,310.25 429.88,323.98 429.88,323.98 C429.88,323.98 432.58,321.24 434.92,318.25 C437.29,315.20 439.03,311.94 438.22,311.48 C437.74,311.27 435.99,311.57 435.30,312.42 C434.79,313.06 424.46,329.26 424.46,329.26 C425.51,328.98 429.80,324.96 431.21,322.43 C435.48,314.57 434.71,310.75 434.55,310.49 C433.48,310.58 422.74,327.40 421.51,329.15 C420.76,330.21 416.70,334.72 416.26,335.27 C416.86,335.52 422.32,332.32 423.59,331.05 C425.61,328.92 427.65,320.92 430.26,312.71 C430.61,311.63 430.60,310.73 430.60,310.73 C430.19,309.85 421.66,322.22 418.61,325.64 C417.68,326.69 410.08,335.13 410.08,335.13 C411.44,335.05 415.79,332.92 417.67,331.53 C421.24,328.83 427.83,320.60 430.19,315.23 C430.68,314.07 429.01,310.99 427.77,310.97 C426.32,311.04 401.46,333.70 400.83,336.15 C401.50,336.74 405.09,334.54 407.18,332.99 C409.77,331.04 428.69,315.07 430.02,313.86 C430.02,313.86 420.51,321.44 411.79,329.15 C409.01,331.62 407.68,333.74 407.60,334.40 C409.67,334.20 413.82,331.25 416.26,329.34 C418.75,327.37 422.90,323.61 424.74,321.93 C425.06,321.64 425.52,321.24 425.52,321.24 C425.52,321.24 425.78,321.03 425.78,321.03" fill="none" stroke="rgb(0, 0, 0)" stroke-width="5.00" stroke-opacity="1.00" stroke-linejoin="round"/>
<path d="M572.30,409.03 C571.99,409.25 571.64,409.54 571.64,409.54 C570.61,410.48 567.56,416.31 567.04,418.12 C566.28,420.90 563.60,439.15 563.23,446.18 C562.87,453.33 563.35,468.35 564.41,475.82 C565.69,484.18 568.25,492.15 569.43,494.50 C570.01,495.64 570.74,496.53 571.30,496.94 C571.30,496.94 571.43,496.94 571.43,496.94" fill="none" stroke="rgb(0, 0, 0)" stroke-width="5.00" stroke-opacity="1.00" stroke-linejoin="round"/>
<path d="M647.44,408.56 C647.44,408.56 647.97,408.56 647.97,408.56 C650.03,411.36 651.89,414.62 652.91,417.58 C654.83,423.29 656.44,439.01 656.42,445.65 C656.37,453.09 654.74,467.11 652.83,473.34 C650.82,479.75 644.40,491.33 639.35,497.24 C638.19,498.58 637.17,499.64 636.38,500.36" fill="none" stroke="rgb(0, 0, 0)" stroke-width="5.00" stroke-opacity="1.00" stroke-linejoin="round"/>
<path d="M589.85,420.55 C589.85,420.55 589.88,420.57 589.88,420.57 C591.34,420.28 596.25,419.19 596.97,419.15 C598.34,419.11 600.01,420.64 599.98,421.98 C599.84,424.31 593.91,436.53 592.74,439.00 C594.44,437.00 599.00,431.71 600.82,429.99 C603.52,427.47 609.85,423.27 612.90,422.20 C614.41,421.70 617.29,421.34 618.55,421.48 C619.91,421.67 621.42,422.69 621.92,423.79 C622.65,425.56 620.35,432.05 620.03,436.10 C619.83,438.72 620.03,440.24 620.51,440.96 C620.51,440.96 622.12,440.36 622.12,440.36" fill="none" stroke="rgb(0, 0, 0)" stroke-width="5.00" stroke-opacity="1.00" stroke-linejoin="round"/>
<path d="M602.02,463.41 C601.92,463.98 601.79,464.64 601.79,464.64 C600.86,468.47 595.81,483.19 593.37,489.80 C592.69,491.62 591.74,494.00 591.17,495.28 C591.01,495.63 590.72,496.12 590.72,496.12" fill="none" stroke="rgb(0, 0, 0)" stroke-width="5.00" stroke-opacity="1.00" stroke-linejoin="round"/>
<path d="M598.96,478.97 C598.96,478.97 598.76,479.52 598.76,479.52 C599.15,479.85 605.57,475.20 607.14,474.17 C609.01,472.94 611.21,471.81 612.68,471.28 C614.41,470.68 615.14,470.29 616.53,469.26 C616.53,469.26 616.42,468.99 616.42,468.99" fill="none" stroke="rgb(0, 0, 0)" stroke-width="5.00" stroke-opacity="1.00" stroke-linejoin="round"/>
<path d="M604.22,477.02 C604.22,477.02 604.36,477.02 604.36,477.02 C604.84,477.23 605.72,478.49 606.83,480.67 C610.65,488.16 613.47,491.67 614.55,492.74 C614.85,493.04 615.23,493.33 615.68,493.62" fill="none" stroke="rgb(0, 0, 0)" stroke-width="5.00" stroke-opacity="1.00" stroke-linejoin="round"/>
<path d="M530.13,236.02 C530.13,236.02 529.61,235.82 529.61,235.82 C528.96,235.30 525.80,232.41 524.78,231.80 C524.02,231.35 521.54,231.29 520.79,231.50 C519.79,231.84 517.84,233.56 517.16,234.81 C515.74,237.50 514.37,244.01 514.60,246.23 C514.95,249.08 516.23,253.15 517.64,255.68 C518.94,257.94 522.23,261.86 523.48,262.69 C525.33,263.84 527.79,263.96 529.44,262.91 C530.51,262.19 533.30,257.32 534.14,254.76 C535.05,251.87 535.45,247.07 534.91,244.71 C534.38,242.55 531.92,238.40 530.66,237.38 C527.95,235.24 525.43,234.61 525.43,234.61" fill="none" stroke="rgb(0, 0, 0)" stroke-width="5.00" stroke-opacity="1.00" stroke-linejoin="round"/>
<path d="M564.02,221.81 C563.51,222.13 563.00,222.44 562.49,222.76 C560.67,223.89 557.77,226.84 555.07,230.34 C552.93,233.17 550.53,238.36 549.45,242.54 C548.50,246.34 548.06,253.79 548.47,257.80 C549.23,264.68 552.26,271.30 554.22,273.70 C555.38,275.10 556.29,275.73 557.41,276.08" fill="none" stroke="rgb(0, 0, 0)" stroke-width="5.00" stroke-opacity="1.00" stroke-linejoin="round"/>
<path d="M566.20,303.05 C566.20,303.05 566.46,303.26 566.46,303.26 C566.69,304.19 566.75,311.20 566.79,314.71 C566.83,322.51 566.78,339.65 566.41,343.15 C565.76,349.31 561.17,380.19 561.00,384.45 C561.00,384.45 560.95,385.21 560.95,385.21" fill="none" stroke="rgb(0, 0, 0)" stroke-width="5.00" stroke-opacity="1.00" stroke-linejoin="round"/>
<path d="M566.82,301.88 C566.82,301.88 566.82,301.99 566.82,301.99 C566.82,301.99 587.18,301.07 587.18,301.07 C588.19,302.13 589.10,315.50 589.01,324.00 C588.87,331.17 586.98,347.50 585.82,355.50 C582.54,375.86 580.75,385.63 580.71,388.27 C580.64,390.65 580.19,391.48 578.88,391.47 C578.05,391.43 563.78,389.69 563.78,389.69 C563.06,388.60 562.77,387.01 562.50,385.46 C562.16,384.16 561.07,381.97 560.83,381.73" fill="none" stroke="rgb(0, 0, 0)" stroke-width="5.00" stroke-opacity="1.00" stroke-linejoin="round"/>
<path d="M582.80,315.51 C582.80,315.51 583.13,315.68 583.13,315.68 C583.64,315.74 588.88,315.92 594.13,316.52 C597.88,316.97 601.20,317.99 603.08,319.51 C604.84,320.99 607.18,325.93 607.48,327.92 C607.81,330.28 607.92,337.67 607.97,341.08 C608.01,343.88 608.51,348.56 610.11,350.12 C611.31,351.23 621.71,353.55 624.16,353.74 C624.77,353.78 625.53,353.80 626.45,353.81 C626.45,353.81 626.92,353.80 626.92,353.80" fill="none" stroke="rgb(0, 0, 0)" stroke-width="5.00" stroke-opacity="1.00" stroke-linejoin="round"/>
<path d="M623.82,348.98 C623.82,348.98 623.96,348.91 623.96,348.91 C624.63,348.88 627.77,348.92 628.37,348.98 C630.13,349.19 631.90,350.34 631.79,351.52 C631.65,352.68 630.21,354.93 629.10,356.05 C628.65,356.48 628.23,356.94 627.77,357.35 C627.77,357.35 627.32,357.62 627.32,357.62" fill="none" stroke="rgb(0, 0, 0)" stroke-width="5.00" stroke-opacity="1.00" stroke-linejoin="round"/>
<path d="M638.83,345.91 C638.83,345.91 637.35,359.89 637.35,359.89 C639.15,360.61 645.96,360.65 649.96,360.69 C653.91,360.70 660.70,360.72 661.28,360.38 C661.16,357.51 660.91,351.08 660.35,349.84 C659.68,348.51 655.37,347.64 649.29,347.04 C645.60,346.69 641.42,346.49 640.78,346.43 C640.78,346.43 640.19,346.36 639.68,346.28" fill="none" stroke="rgb(0, 0, 0)" stroke-width="5.00" stroke-opacity="1.00" stroke-linejoin="round"/>
<path d="M584.00,369.05 C584.00,369.05 583.66,369.62 583.66,369.62 C585.11,370.99 586.10,371.66 587.30,371.89 C589.61,372.31 619.89,374.10 623.28,374.29 C625.42,374.42 627.21,374.47 629.18,374.49 C630.14,374.48 631.35,374.48 631.35,374.48" fill="none" stroke="rgb(0, 0, 0)" stroke-width="5.00" stroke-opacity="1.00" stroke-linejoin="round"/>
<path d="M626.86,368.70 C626.86,368.70 626.27,368.70 626.27,368.70 C626.27,368.70 633.85,371.83 633.85,371.83 C633.33,373.51 632.47,374.76 630.47,376.48 C629.26,377.51 627.52,378.98 627.15,379.27 C627.15,379.27 627.02,379.37 627.02,379.37" fill="none" stroke="rgb(0, 0, 0)" stroke-width="5.00" stroke-opacity="1.00" stroke-linejoin="round"/>
<path d="M642.40,368.79 C641.96,368.94 641.71,369.58 641.43,371.54 C641.18,373.42 640.59,378.39 641.04,379.99 C642.48,380.72 643.57,380.89 645.98,380.59 C650.10,380.10 657.20,379.23 659.23,379.20 C659.23,379.20 658.99,369.24 658.99,369.24 C658.16,368.79 644.59,368.58 642.45,368.31 C641.84,368.23 641.12,368.14 641.12,368.14" fill="none" stroke="rgb(0, 0, 0)" stroke-width="5.00" stroke-opacity="1.00" stroke-linejoin="round"/>
<path d="M570.45,328.99 C570.45,328.99 571.03,329.02 571.03,329.02 C571.79,329.13 573.95,329.46 576.55,329.64 C578.78,329.79 582.89,330.09 584.76,330.23 C586.73,330.40 589.11,330.64 590.22,330.77" fill="none" stroke="rgb(0, 0, 0)" stroke-width="5.00" stroke-opacity="1.00" stroke-linejoin="round"/>
<path d="M570.38,347.85 C570.38,347.85 570.37,347.97 570.37,347.97 C570.37,347.97 570.67,348.29 570.67,348.29 C570.98,348.33 579.50,348.43 581.29,348.45 C583.04,348.47 585.64,348.50 586.49,348.50" fill="none" stroke="rgb(0, 0, 0)" stroke-width="5.00" stroke-opacity="1.00" stroke-linejoin="round"/>
<path d="M564.93,361.83 C564.93,361.83 565.34,361.83 565.34,361.83 C566.08,361.76 568.05,361.55 569.68,361.54 C575.68,361.51 582.74,361.49 583.80,361.49 C584.56,361.49 585.50,361.49 585.50,361.49" fill="none" stroke="rgb(0, 0, 0)" stroke-width="5.00" stroke-opacity="1.00" stroke-linejoin="round"/>
<path d="M565.55,379.27 C565.55,379.27 565.91,379.27 565.91,379.27 C568.63,378.96 574.75,378.57 578.71,378.60 C579.71,378.61 580.76,378.63 581.87,378.65 C582.56,378.67 583.25,378.69 583.93,378.72" fill="none" stroke="rgb(0, 0, 0)" stroke-width="5.00" stroke-opacity="1.00" stroke-linejoin="round"/>
<path d="M578.27,228.26 C578.00,227.90 577.83,227.49 577.83,227.49 C577.83,227.49 577.88,227.08 578.04,226.71 C575.12,244.87 573.03,262.33 572.35,268.86 C572.16,270.71 572.11,271.34 572.13,271.65" fill="none" stroke="rgb(0, 0, 0)" stroke-width="5.00" stroke-opacity="1.00" stroke-linejoin="round"/>
<path d="M590.53,254.03 C590.53,254.03 590.84,254.03 590.84,254.03 C590.84,254.03 591.22,253.94 591.63,253.83 C591.44,253.03 590.09,251.87 588.80,252.09 C587.14,252.39 584.84,254.48 584.19,256.16 C583.51,258.07 583.11,260.46 583.21,262.12 C583.34,263.75 584.18,266.12 584.98,267.09 C585.82,268.04 587.73,268.83 589.10,268.82 C590.45,268.76 592.71,267.91 593.90,267.03 C595.05,266.13 596.39,264.24 596.72,263.06 C597.02,261.84 596.68,259.96 595.99,258.60 C595.36,257.44 593.73,255.71 591.87,254.12 C591.53,253.83 591.14,253.52 590.68,253.18" fill="none" stroke="rgb(0, 0, 0)" stroke-width="5.00" stroke-opacity="1.00" stroke-linejoin="round"/>
<path d="M618.19,254.62 C618.19,254.62 618.47,254.68 618.47,254.68 C618.17,254.32 616.74,253.49 615.75,253.58 C614.14,253.76 611.41,255.39 610.51,256.65 C609.53,258.08 608.97,259.77 608.90,261.38 C608.89,262.78 609.47,264.34 610.28,264.92 C611.10,265.46 613.03,265.52 614.01,265.04 C615.94,264.03 618.88,260.54 620.41,257.70 C620.44,260.50 620.49,267.19 620.51,271.07 C620.50,275.86 619.75,280.58 617.90,283.78 C616.90,285.43 615.30,286.97 613.66,287.91 C612.31,288.64 610.39,289.20 609.44,289.11 C608.57,288.99 607.51,287.86 607.44,287.00 C607.37,285.58 609.67,280.79 611.45,278.67 C611.77,278.30 612.51,277.47 613.67,276.19" fill="none" stroke="rgb(0, 0, 0)" stroke-width="5.00" stroke-opacity="1.00" stroke-linejoin="round"/>
<path d="M632.62,240.09 C632.62,240.09 632.55,240.13 632.55,240.13 C632.06,240.32 631.67,240.53 631.39,240.76 C629.89,242.01 628.38,244.47 627.73,246.70 C626.61,250.79 627.37,263.69 629.03,268.90 C629.78,271.20 632.39,274.75 633.67,275.58 C633.67,275.58 634.39,275.94 635.10,276.21" fill="none" stroke="rgb(0, 0, 0)" stroke-width="5.00" stroke-opacity="1.00" stroke-linejoin="round"/>
<path d="M639.77,252.80 C639.77,252.80 639.79,253.27 639.77,253.63 C639.51,260.55 639.60,261.12 640.13,261.15 C641.48,259.17 642.33,257.90 643.18,256.57 C644.03,255.26 645.28,254.20 647.70,252.62 C649.47,253.76 650.24,254.72 650.34,256.26 C650.44,257.78 650.42,260.09 650.31,261.65 C650.23,262.82 649.94,265.63 649.79,267.09 C649.76,267.40 649.77,267.82 649.77,267.82" fill="none" stroke="rgb(0, 0, 0)" stroke-width="5.00" stroke-opacity="1.00" stroke-linejoin="round"/>
<path d="M656.98,236.79 C656.98,236.79 657.56,236.70 657.56,236.70 C659.10,237.24 661.79,241.29 662.63,243.99 C663.59,247.17 664.27,254.84 663.73,258.65 C663.13,262.54 660.24,269.24 658.17,272.26 C656.65,274.45 654.35,276.72 654.35,276.72" fill="none" stroke="rgb(0, 0, 0)" stroke-width="5.00" stroke-opacity="1.00" stroke-linejoin="round"/>
<path d="M658.26,212.30 C658.26,212.30 658.93,212.84 658.93,212.84 C661.86,215.10 664.79,218.08 667.20,221.45 C671.17,227.07 676.59,237.39 677.95,243.51 C678.60,246.53 678.93,252.26 678.78,255.98 C678.63,259.38 677.48,267.09 676.66,270.18 C675.12,275.86 670.51,283.35 668.48,285.86 C667.54,287.02 666.15,288.49 665.07,289.53 C665.07,289.53 664.62,289.91 664.62,289.91" fill="none" stroke="rgb(0, 0, 0)" stroke-width="5.00" stroke-opacity="1.00" stroke-linejoin="round"/>
<path d="M530.82,99.82 C530.82,99.82 530.55,100.10 530.55,100.10 C530.55,100.10 530.21,100.32 530.21,100.32 C530.21,100.32 530.27,100.45 530.27,100.45 C530.27,100.45 530.41,100.47 530.41,100.47" fill="none" stroke="rgb(0, 0, 0)" stroke-width="5.00" stroke-opacity="1.00" stroke-linejoin="round"/>
<path d="M530.41,100.47 C530.41,100.47 531.25,159.88 531.25,159.88" fill="none" stroke="rgb(0, 0, 0)" stroke-width="5.00" stroke-opacity="1.00" stroke-linejoin="round"/>
<path d="M531.25,159.88 C531.25,159.88 530.73,159.88 530.73,159.88 C530.73,159.88 530.85,159.87 530.85,159.87 C530.85,159.87 531.01,159.81 531.01,159.81" fill="none" stroke="rgb(0, 0, 0)" stroke-width="5.00" stroke-opacity="1.00" stroke-linejoin="round"/>
<path d="M529.39,159.33 C529.39,159.33 529.29,159.34 529.29,159.34 C528.50,158.73 518.20,146.07 512.90,141.75 C509.60,139.07 504.08,135.33 501.46,134.05 C497.78,132.29 476.58,124.90 471.78,123.84 C465.95,122.57 452.98,122.38 444.89,123.19 C437.13,124.04 423.92,127.32 417.94,129.91 C412.36,132.35 400.51,139.13 395.67,143.72 C390.65,148.54 383.55,159.15 382.29,162.97 C384.02,160.08 392.87,155.05 399.81,151.71 C403.07,150.17 408.39,148.02 411.37,147.04 C414.86,145.91 420.21,144.98 424.52,144.91 C427.80,144.88 432.89,145.20 435.74,146.06 C437.72,146.67 447.24,150.59 448.06,151.00 C451.03,152.50 454.02,156.04 455.01,158.21 C455.48,159.23 457.21,163.79 457.83,165.44 C457.08,163.62 453.53,160.58 451.00,159.13 C448.02,157.46 442.16,155.23 438.68,155.06 C434.65,154.93 431.78,155.78 428.91,158.11 C424.67,161.69 423.75,162.54 422.87,163.44 C424.31,162.24 426.57,160.62 427.64,160.26 C429.47,159.68 436.10,161.70 436.75,162.27 C437.55,163.00 438.08,164.88 438.17,165.33 C438.17,165.33 438.42,165.85 438.42,165.85" fill="none" stroke="rgb(0, 0, 0)" stroke-width="5.00" stroke-opacity="1.00" stroke-linejoin="round"/>
<path d="M365.44,194.02 C365.44,194.02 365.46,194.03 365.46,194.03 C365.95,194.17 366.44,194.25 366.83,194.24 C366.83,194.24 367.15,194.22 367.15,194.22" fill="none" stroke="rgb(0, 0, 0)" stroke-width="5.00" stroke-opacity="1.00" stroke-linejoin="round"/>
<path d="M367.15,194.22 C367.15,194.22 659.37,194.36 659.37,194.36" fill="none" stroke="rgb(0, 0, 0)" stroke-width="5.00" stroke-opacity="1.00" stroke-linejoin="round"/>
<path d="M659.37,194.36 C659.37,194.36 658.71,194.36 658.71,194.36 C658.71,194.36 658.90,194.36 658.90,194.36 C658.90,194.36 659.00,194.36 659.00,194.36" fill="none" stroke="rgb(0, 0, 0)" stroke-width="5.00" stroke-opacity="1.00" stroke-linejoin="round"/>
<path d="M659.00,194.36 C659.00,194.36 658.38,172.65 658.38,172.65" fill="none" stroke="rgb(0, 0, 0)" stroke-width="5.00" stroke-opacity="1.00" stroke-linejoin="round"/>
<path d="M658.38,172.65 C658.38,172.65 658.76,172.90 658.76,172.90 C658.76,172.90 658.84,173.21 658.84,173.21" fill="none" stroke="rgb(0, 0, 0)" stroke-width="5.00" stroke-opacity="1.00" stroke-linejoin="round"/>
<path d="M658.84,173.21 C658.84,173.21 362.64,172.93 362.64,172.93" fill="none" stroke="rgb(0, 0, 0)" stroke-width="5.00" stroke-opacity="1.00" stroke-linejoin="round"/>
<path d="M362.64,172.93 C362.64,172.93 362.79,172.93 362.79,172.93 C362.79,172.93 362.99,172.54 362.99,172.54 C362.99,172.54 363.82,172.46 363.82,172.46" fill="none" stroke="rgb(0, 0, 0)" stroke-width="5.00" stroke-opacity="1.00" stroke-linejoin="round"/>
<path d="M363.82,172.46 C363.82,172.46 362.52,192.63 362.52,192.63" fill="none" stroke="rgb(0, 0, 0)" stroke-width="5.00" stroke-opacity="1.00" stroke-linejoin="round"/>
<path d="M362.52,192.63 C362.52,192.63 362.21,192.47 362.21,192.47 C362.21,192.47 362.02,191.41 362.02,191.41 C362.70,191.29 363.37,191.34 363.37,191.34 C363.37,191.34 363.90,191.71 364.29,192.22" fill="none" stroke="rgb(0, 0, 0)" stroke-width="5.00" stroke-opacity="1.00" stroke-linejoin="round"/>
<path d="M386.11,174.97 C386.11,174.97 386.01,175.43 386.01,175.43 C386.14,176.28 386.66,178.52 386.99,180.92 C387.56,185.08 388.46,191.64 388.56,192.22 C388.65,192.66 388.82,193.49 389.10,194.71" fill="none" stroke="rgb(0, 0, 0)" stroke-width="5.00" stroke-opacity="1.00" stroke-linejoin="round"/>
<path d="M413.05,177.11 C413.05,177.11 412.96,177.02 412.96,177.02 C412.96,177.02 412.75,176.95 412.75,176.95 C412.53,181.89 412.62,185.75 413.10,188.02 C413.48,189.73 413.89,191.35 414.04,191.75" fill="none" stroke="rgb(0, 0, 0)" stroke-width="5.00" stroke-opacity="1.00" stroke-linejoin="round"/>
<path d="M434.18,173.30 C434.18,173.30 434.13,173.33 434.13,173.33 C433.43,173.98 433.53,180.72 433.60,183.96 C433.67,185.96 433.90,188.77 434.13,190.35 C434.21,190.94 434.46,192.32 434.46,192.32" fill="none" stroke="rgb(0, 0, 0)" stroke-width="5.00" stroke-opacity="1.00" stroke-linejoin="round"/>
<path d="M452.74,176.60 C452.74,176.60 452.95,176.85 452.95,176.85 C453.02,177.37 452.96,179.55 452.83,181.83 C452.74,183.86 452.55,188.10 452.61,189.39 C452.75,192.70 453.39,195.23 453.39,195.23" fill="none" stroke="rgb(0, 0, 0)" stroke-width="5.00" stroke-opacity="1.00" stroke-linejoin="round"/>
<path d="M476.07,176.06 C476.07,176.06 476.07,176.11 476.07,176.11 C476.05,176.93 476.07,177.70 476.19,180.00 C476.29,181.85 476.52,185.73 476.68,186.79 C476.92,188.39 477.43,190.23 477.78,191.06" fill="none" stroke="rgb(0, 0, 0)" stroke-width="5.00" stroke-opacity="1.00" stroke-linejoin="round"/>
<path d="M501.89,176.77 C501.89,176.77 502.51,176.77 502.51,176.77 C503.04,180.63 504.19,189.01 504.69,191.36 C504.86,192.13 505.21,193.04 505.77,194.39" fill="none" stroke="rgb(0, 0, 0)" stroke-width="5.00" stroke-opacity="1.00" stroke-linejoin="round"/>
<path d="M523.78,174.83 C524.18,175.34 524.50,175.99 524.50,175.99 C524.61,176.41 524.59,180.17 524.63,181.31 C524.76,184.43 526.82,189.07 527.49,190.01 C527.49,190.01 527.99,190.46 527.99,190.46" fill="none" stroke="rgb(0, 0, 0)" stroke-width="5.00" stroke-opacity="1.00" stroke-linejoin="round"/>
<path d="M551.83,174.45 C551.83,174.45 551.37,174.61 551.26,174.89 C550.57,176.81 550.92,188.31 551.02,189.02 C551.08,189.51 551.27,190.39 551.57,191.68" fill="none" stroke="rgb(0, 0, 0)" stroke-width="5.00" stroke-opacity="1.00" stroke-linejoin="round"/>
<path d="M575.25,175.20 C575.03,176.70 574.31,181.51 574.15,182.74 C573.83,185.24 573.79,188.66 574.05,190.44 C574.17,191.19 574.63,192.53 574.63,192.53" fill="none" stroke="rgb(0, 0, 0)" stroke-width="5.00" stroke-opacity="1.00" stroke-linejoin="round"/>
<path d="M600.89,177.35 C600.89,177.35 600.38,177.40 600.38,177.40 C600.40,180.54 600.51,190.02 600.56,190.60 C600.62,191.17 600.80,192.45 601.09,194.44" fill="none" stroke="rgb(0, 0, 0)" stroke-width="5.00" stroke-opacity="1.00" stroke-linejoin="round"/>
<path d="M621.28,176.95 C621.28,176.95 620.98,177.17 620.98,177.17 C620.65,178.05 620.65,179.76 621.01,182.30 C621.31,184.45 621.96,188.99 622.15,190.11 C622.46,191.85 622.87,193.75 623.08,194.51" fill="none" stroke="rgb(0, 0, 0)" stroke-width="5.00" stroke-opacity="1.00" stroke-linejoin="round"/>
<path d="M638.10,175.00 C638.10,175.00 637.56,175.42 637.56,175.42 C637.42,177.68 639.48,186.92 639.70,187.75 C639.85,188.28 640.17,189.35 640.68,190.98" fill="none" stroke="rgb(0, 0, 0)" stroke-width="5.00" stroke-opacity="1.00" stroke-linejoin="round"/>
<path d="M28.58,126.46 C28.58,126.46 27.36,127.27 27.36,127.27 C28.33,127.40 47.04,125.12 56.21,124.01 C68.08,122.83 77.03,122.31 87.13,122.09 C98.37,121.92 102.27,121.71 113.71,120.66 C120.95,119.95 129.79,119.10 131.40,118.96" fill="none" stroke="rgb(0, 0, 0)" stroke-width="5.00" stroke-opacity="1.00" stroke-linejoin="round"/>
<path d="M175.64,113.25 C173.80,113.91 172.69,114.31 172.32,114.45 C171.95,114.59 171.84,114.69 171.84,114.69 C177.06,114.96 191.21,114.31 199.31,113.90 C206.91,113.51 216.82,113.02 219.11,112.92" fill="none" stroke="rgb(0, 0, 0)" stroke-width="5.00" stroke-opacity="1.00" stroke-linejoin="round"/>
</g>
</svg>
