<?xml version="1.0" encoding="UTF-8" standalone="no"?>
<!DOCTYPE svg PUBLIC "-//W3C//DTD SVG 1.1//EN" "http://www.w3.org/Graphics/SVG/1.1/DTD/svg11.dtd">
<svg width="13.17" height="10.90" viewBox="0.00 0.00 64.00 53.00" xmlns="http://www.w3.org/2000/svg" xmlns:xlink="http://www.w3.org/1999/xlink">
<g stroke-linecap="round" transform="translate(5.00, 0.00)" id="Capa_2">
<path d="M26.87,-5.17 C26.80,-5.17 12.88,-5.30 12.74,-5.29 C10.05,-5.23 6.48,-4.61 4.79,-3.86 C3.16,-3.08 0.85,-0.92 -0.06,0.60 C-1.32,2.83 -1.98,9.72 -1.31,13.88 C-0.94,16.11 4.72,39.01 6.71,47.03 C7.15,48.62 8.09,49.80 8.85,49.60 C10.36,49.06 16.10,39.61 16.30,39.43 C16.74,39.06 20.42,40.99 20.82,41.13 C22.81,41.83 26.52,41.95 28.19,41.41 C29.85,40.86 32.47,39.36 33.18,39.19 C33.71,39.10 37.20,47.11 38.78,49.34 C39.63,50.49 41.14,51.07 41.66,50.47 C42.14,49.83 48.36,26.91 50.59,18.52 C51.94,13.22 52.75,6.09 52.39,2.75 C52.16,1.14 50.80,-2.02 49.66,-3.23 C48.34,-4.56 44.72,-5.55 41.87,-5.56 C41.24,-5.55 32.34,-5.05 31.03,-4.98 C30.25,-4.86 27.82,-5.10 26.87,-5.17 Z" fill="rgb(256,256,256)" stroke="rgb(0, 0, 0)" stroke-width="3.00" stroke-opacity="1.00" stroke-linejoin="miter"/>
<path d="M16.08,11.21 C17.30,9.10 19.57,7.00 20.81,7.33 C21.15,7.42 22.91,10.68 23.53,10.67 C23.98,10.67 26.58,7.58 27.02,7.33 C27.72,6.95 30.05,7.70 30.59,8.50 C31.15,9.36 32.07,11.34 32.06,11.29" fill="none" stroke="rgb(0, 0, 0)" stroke-width="3.00" stroke-opacity="1.00" stroke-linejoin="miter"/>
<path d="M16.38,22.30 L16.61,17.41" fill="none" stroke="rgb(0, 0, 0)" stroke-width="5.00" stroke-opacity="1.00" stroke-linejoin="round"/>
<path d="M31.74,22.46 L32.06,17.34" fill="none" stroke="rgb(0, 0, 0)" stroke-width="5.00" stroke-opacity="1.00" stroke-linejoin="round"/>
</g>
</svg>
